<svg width="65" height="65" viewBox="0 0 65 65" fill="none" xmlns="http://www.w3.org/2000/svg">
<circle cx="32.5" cy="32.5" r="32.5" fill="#DC7000" fill-opacity="0.09"/>
<g clip-path="url(#clip0_38_495)">
<path d="M38.7441 17.6271H26.2559C25.0521 17.6271 24.072 18.6072 24.072 19.8109V45.1885C24.072 46.3927 25.0521 47.3728 26.2559 47.3728H38.7436C39.9478 47.3728 40.928 46.3927 40.928 45.189V19.8109C40.928 18.6072 39.9478 17.6271 38.7441 17.6271ZM25.0635 21.5932H39.9364V40.4322H25.0635V21.5932ZM26.2559 18.6186H38.7436C39.4015 18.6186 39.9364 19.1535 39.9364 19.8109V20.6017H25.0635V19.8109C25.0635 19.1535 25.5985 18.6186 26.2559 18.6186ZM38.7441 46.3813H26.2559C25.5985 46.3813 25.0635 45.8464 25.0635 45.189V41.4237H39.9364V45.189C39.9364 45.8464 39.4015 46.3813 38.7441 46.3813Z" fill="#DC7000"/>
<path d="M32.5 41.9194C31.4064 41.9194 30.517 42.8088 30.517 43.9025C30.517 44.9961 31.4064 45.8855 32.5 45.8855C33.5937 45.8855 34.4831 44.9961 34.4831 43.9025C34.4831 42.8088 33.5937 41.9194 32.5 41.9194ZM32.5 44.894C31.9532 44.894 31.5085 44.4493 31.5085 43.9025C31.5085 43.3557 31.9532 42.911 32.5 42.911C33.0468 42.911 33.4915 43.3557 33.4915 43.9025C33.4915 44.4493 33.0468 44.894 32.5 44.894Z" fill="#DC7000"/>
<path d="M30.5169 20.1059H32.5C32.7741 20.1059 32.9958 19.8843 32.9958 19.6101C32.9958 19.336 32.7741 19.1144 32.5 19.1144H30.5169C30.2428 19.1144 30.0212 19.336 30.0212 19.6101C30.0212 19.8843 30.2428 20.1059 30.5169 20.1059Z" fill="#DC7000"/>
<path d="M33.9873 20.1059H34.483C34.7572 20.1059 34.9788 19.8843 34.9788 19.6101C34.9788 19.336 34.7572 19.1144 34.483 19.1144H33.9873C33.7131 19.1144 33.4915 19.336 33.4915 19.6101C33.4915 19.8843 33.7131 20.1059 33.9873 20.1059Z" fill="#DC7000"/>
<path d="M45.6932 19.8922C45.4993 19.6984 45.186 19.6984 44.9922 19.8922C44.7983 20.0861 44.7983 20.3994 44.9922 20.5932C46.8444 22.4454 46.8444 25.4591 44.9922 27.3118C44.7983 27.5056 44.7983 27.819 44.9922 28.0128C45.0889 28.1095 45.2158 28.1581 45.3427 28.1581C45.4696 28.1581 45.5965 28.1095 45.6932 28.0128C47.9321 25.7744 47.9321 22.1311 45.6932 19.8922Z" fill="#DC7000"/>
<path d="M43.6056 21.0205C43.4118 20.8267 43.0984 20.8267 42.9046 21.0205C42.7108 21.2143 42.7108 21.5277 42.9046 21.7215C43.5179 22.3348 43.8555 23.1518 43.8555 24.0214C43.8555 24.8909 43.5179 25.7074 42.9046 26.3207C42.7108 26.5145 42.7108 26.8279 42.9046 27.0217C43.0013 27.1184 43.1282 27.167 43.2551 27.167C43.382 27.167 43.5089 27.1184 43.6056 27.0217C44.4063 26.2216 44.847 25.1557 44.847 24.0214C44.847 22.8871 44.4068 21.8207 43.6056 21.0205Z" fill="#DC7000"/>
<path d="M20.0078 20.5932C20.2016 20.3994 20.2016 20.0861 20.0078 19.8922C19.8139 19.6984 19.5006 19.6984 19.3068 19.8922C17.0679 22.1311 17.0679 25.7739 19.3068 28.0128C19.4034 28.1095 19.5304 28.1581 19.6573 28.1581C19.7842 28.1581 19.9111 28.1095 20.0078 28.0128C20.2016 27.819 20.2016 27.5056 20.0078 27.3118C18.1551 25.4596 18.1551 22.4459 20.0078 20.5932Z" fill="#DC7000"/>
<path d="M22.0954 20.8838C21.9016 20.6899 21.5882 20.6899 21.3944 20.8838C20.5937 21.6839 20.153 22.7498 20.153 23.8841C20.153 25.0184 20.5937 26.0843 21.3944 26.885C21.4911 26.9817 21.618 27.0303 21.7449 27.0303C21.8718 27.0303 21.9987 26.9817 22.0954 26.885C22.2893 26.6912 22.2893 26.3778 22.0954 26.184C21.4822 25.5707 21.1445 24.7537 21.1445 23.8841C21.1445 23.0146 21.4817 22.1981 22.0954 21.5848C22.2888 21.3914 22.2888 21.0776 22.0954 20.8838Z" fill="#DC7000"/>
</g>
<defs>
<clipPath id="clip0_38_495">
<rect width="29.7458" height="29.7458" fill="white" transform="translate(17.6271 17.6271)"/>
</clipPath>
</defs>
</svg>
