<svg width="65" height="65" viewBox="0 0 65 65" fill="none" xmlns="http://www.w3.org/2000/svg">
<circle cx="32.5" cy="32.5" r="32.5" fill="#DC7000" fill-opacity="0.09"/>
<g clip-path="url(#clip0_38_495)">
<path d="M34.5671 40.9055C32.8811 41.4681 31.0214 41.468 29.3305 40.9053C28.8568 40.7476 28.3452 41.0038 28.1877 41.4774C28.0301 41.9509 28.2862 42.4627 28.7598 42.6203C29.7894 42.963 30.8704 43.1343 31.951 43.1343C33.0316 43.1343 34.112 42.9628 35.1392 42.62C35.6127 42.4621 35.8684 41.9502 35.7104 41.4767C35.5525 41.0033 35.0407 40.7477 34.5671 40.9055Z" fill="#DC7000"/>
<path d="M42.4768 23.5315C42.0922 20.7727 39.7233 18.5952 36.7892 18.5952H35.7569V18.5309C35.7569 18.0318 35.3523 17.6271 34.8532 17.6271H29.0452C28.5461 17.6271 28.1414 18.0318 28.1414 18.5309V18.5951H27.1092C24.1997 18.5951 21.8275 20.7422 21.4241 23.5308C19.73 23.9163 18.4615 25.4337 18.4615 27.2428V34.9868C18.4615 37.4634 20.4788 38.4728 21.3951 38.6906C21.8089 44.266 26.4904 48.4746 31.9492 48.4746C37.5159 48.4746 42.0926 44.1544 42.5028 38.6908C44.8781 38.1269 45.4369 35.9719 45.4369 34.9869V27.2429C45.4369 25.4347 44.1696 23.9179 42.4768 23.5315ZM35.7569 20.4026H36.7892C39.3462 20.4026 40.4026 22.4933 40.6222 23.4351H35.7569V20.4026ZM29.9489 19.4346H33.9494V23.4351H29.9489V19.4346ZM27.1092 20.4026H28.1414V23.4351H23.2799C23.8661 20.9796 26.0906 20.4026 27.1092 20.4026ZM31.9492 46.6671C27.4886 46.6671 23.6758 43.288 23.2189 38.7946H27.6755C28.7845 38.7946 29.8696 38.3452 30.6525 37.5616C30.6571 37.557 30.6617 37.5523 30.6663 37.5475C31.0063 37.215 31.4727 37.0246 31.9492 37.0246C32.4257 37.0246 32.8922 37.215 33.2321 37.5476C33.2366 37.5523 33.2412 37.557 33.2459 37.5616C34.0289 38.3452 35.1139 38.7946 36.223 38.7946H40.6792C40.2253 43.2109 36.4833 46.6671 31.9492 46.6671ZM43.6295 34.9869C43.6295 36.1054 42.7178 36.9871 41.6292 36.9871H36.223C35.5969 36.9871 34.9844 36.7364 34.5392 36.2986C34.5343 36.2935 34.5293 36.2884 34.5243 36.2833C33.8468 35.6058 32.9082 35.2172 31.9492 35.2172C30.9903 35.2172 30.0518 35.6058 29.3742 36.2833C29.3692 36.2883 29.3642 36.2934 29.3593 36.2985C28.914 36.7364 28.3015 36.9871 27.6755 36.9871H22.2692C21.184 36.9871 20.2689 36.1092 20.2689 34.9869V27.2429C20.2689 26.14 21.1662 25.2427 22.2692 25.2427H41.6291C42.7321 25.2427 43.6294 26.14 43.6294 27.2429V34.9869H43.6295Z" fill="#DC7000"/>
</g>
<defs>
<clipPath id="clip0_38_495">
<rect width="30.8475" height="30.8475" fill="white" transform="translate(16.5255 17.6271)"/>
</clipPath>
</defs>
</svg>
