<svg xmlns="http://www.w3.org/2000/svg" width="12" height="13" viewBox="0 0 12 13" fill="none">
  <g clip-path="url(#clip0_38_696)">
    <path d="M0.742419 8.59912C0.787731 8.60762 0.833589 8.61154 0.87947 8.61085L8.69201 8.61085L8.52165 8.70239C8.35514 8.79343 8.20365 8.91735 8.07398 9.06852L5.88315 11.5994C5.59461 11.9176 5.54613 12.4295 5.76826 12.8123C6.02678 13.2201 6.52257 13.3087 6.87566 13.01C6.90418 12.9859 6.93129 12.9596 6.95677 12.9313L10.9185 8.35456C11.2281 7.99729 11.2284 7.41774 10.9191 7.06007C10.9189 7.05984 10.9187 7.05958 10.9185 7.05935L6.95677 2.48265C6.64692 2.1257 6.14524 2.1265 5.83623 2.48446C5.81191 2.51263 5.7892 2.54261 5.76826 2.57419C5.54613 2.95694 5.59461 3.46882 5.88315 3.78701L8.07002 6.3225C8.18627 6.45694 8.31993 6.56967 8.46619 6.6566L8.70389 6.78017L0.923073 6.78017C0.51831 6.76281 0.16319 7.08944 0.0871496 7.54906C0.0171022 8.04806 0.310468 8.51817 0.742419 8.59912Z" fill="#DC7000"/>
  </g>
  <defs>
    <clipPath id="clip0_38_696">
      <rect width="11.0741" height="12.7931" fill="white" transform="matrix(-1 0 0 -1 11.1509 12.8793)"/>
    </clipPath>
  </defs>
</svg>