<svg width="65" height="65" viewBox="0 0 65 65" fill="none" xmlns="http://www.w3.org/2000/svg">
<circle cx="32.5" cy="32.5" r="32.5" fill="#DC7000" fill-opacity="0.09"/>
<g clip-path="url(#clip0_38_495)">
<path d="M19.1879 29.305C19.3295 29.3058 19.4655 29.2503 19.566 29.1506L21.6959 27.0206C21.9047 26.8118 21.9047 26.4733 21.6959 26.2645C21.4871 26.0557 21.1486 26.0557 20.9398 26.2645L18.8099 28.3945C18.709 28.4944 18.6523 28.6305 18.6523 28.7725C18.6523 28.9145 18.709 29.0506 18.8099 29.1506C18.9103 29.2503 19.0464 29.3058 19.1879 29.305Z" fill="#DC7000"/>
<path d="M19.1879 32.4999C19.3295 32.5007 19.4655 32.4452 19.566 32.3455L24.8908 27.0206C25.0996 26.8118 25.0996 26.4733 24.8908 26.2645C24.682 26.0557 24.3435 26.0557 24.1347 26.2645L18.8099 31.5894C18.709 31.6894 18.6523 31.8255 18.6523 31.9674C18.6523 32.1094 18.709 32.2455 18.8099 32.3455C18.9103 32.4452 19.0464 32.5007 19.1879 32.4999Z" fill="#DC7000"/>
<path d="M46.8771 16.5254H33.0325C32.1503 16.5254 31.4351 17.2406 31.4351 18.1228V23.9802H19.1879C17.7175 23.9802 16.5255 25.1722 16.5255 26.6426V40.4873C16.5255 41.9577 17.7175 43.1497 19.1879 43.1497H25.0452V45.2796H23.4478C22.5655 45.2796 21.8503 45.9948 21.8503 46.8771C21.8503 47.7593 22.5655 48.4745 23.4478 48.4745H46.8771C47.7594 48.4745 48.4746 47.7593 48.4746 46.8771V18.1228C48.4746 17.2406 47.7594 16.5254 46.8771 16.5254ZM19.1879 25.0452H38.3574C39.2396 25.0452 39.9548 25.7604 39.9548 26.6426V39.4223H17.5904V26.6426C17.5904 25.7604 18.3056 25.0452 19.1879 25.0452ZM17.5904 40.4873H39.9548C39.9548 41.3695 39.2396 42.0847 38.3574 42.0847H19.1879C18.3056 42.0847 17.5904 41.3695 17.5904 40.4873ZM26.1102 43.1497H31.4351V45.2796H26.1102V43.1497ZM33.0325 47.4096H23.4478C23.1537 47.4096 22.9153 47.1712 22.9153 46.8771C22.9153 46.583 23.1537 46.3446 23.4478 46.3446H34.0975C34.3916 46.3446 34.63 46.583 34.63 46.8771C34.63 47.1712 34.3916 47.4096 34.0975 47.4096H33.0325ZM47.4096 46.8771C47.4096 47.1712 47.1712 47.4096 46.8771 47.4096H35.5991C35.7717 46.9214 35.697 46.3798 35.3986 45.9566C35.1003 45.5334 34.6153 45.2811 34.0975 45.2796H32.5V43.1497H38.3574C39.8278 43.1497 41.0198 41.9577 41.0198 40.4873V26.6426C41.0198 25.1722 39.8278 23.9802 38.3574 23.9802H32.5V18.1228C32.5 17.8288 32.7384 17.5904 33.0325 17.5904H46.8771C47.1712 17.5904 47.4096 17.8288 47.4096 18.1228V46.8771Z" fill="#DC7000"/>
<path d="M45.2797 19.1879H34.63C34.0418 19.1879 33.565 19.6647 33.565 20.2528V21.3178C33.565 21.906 34.0418 22.3828 34.63 22.3828H45.2797C45.8679 22.3828 46.3447 21.906 46.3447 21.3178V20.2528C46.3447 19.6647 45.8679 19.1879 45.2797 19.1879ZM34.63 21.3178V20.2528H45.2797V21.3178H34.63Z" fill="#DC7000"/>
<path d="M44.2147 27.1751C45.097 27.1751 45.8122 26.4599 45.8122 25.5777C45.8122 24.6954 45.097 23.9802 44.2147 23.9802C43.3325 23.9802 42.6172 24.6954 42.6172 25.5777C42.6172 26.4599 43.3325 27.1751 44.2147 27.1751ZM44.2147 25.0452C44.5088 25.0452 44.7472 25.2836 44.7472 25.5777C44.7472 25.8718 44.5088 26.1102 44.2147 26.1102C43.9206 26.1102 43.6822 25.8718 43.6822 25.5777C43.6822 25.2836 43.9206 25.0452 44.2147 25.0452Z" fill="#DC7000"/>
<path d="M45.8122 29.8376C45.8122 28.9553 45.097 28.2401 44.2147 28.2401C43.3325 28.2401 42.6172 28.9553 42.6172 29.8376C42.6172 30.7198 43.3325 31.435 44.2147 31.435C45.097 31.435 45.8122 30.7198 45.8122 29.8376ZM44.2147 30.3701C43.9206 30.3701 43.6822 30.1317 43.6822 29.8376C43.6822 29.5435 43.9206 29.3051 44.2147 29.3051C44.5088 29.3051 44.7472 29.5435 44.7472 29.8376C44.7472 30.1317 44.5088 30.3701 44.2147 30.3701Z" fill="#DC7000"/>
<path d="M37.2924 44.2147C36.9984 44.2147 36.7599 44.4531 36.7599 44.7472V45.8122C36.7599 46.1063 36.9984 46.3447 37.2924 46.3447C37.5865 46.3447 37.8249 46.1063 37.8249 45.8122V44.7472C37.8249 44.4531 37.5865 44.2147 37.2924 44.2147Z" fill="#DC7000"/>
<path d="M39.4223 44.2147C39.1282 44.2147 38.8898 44.4531 38.8898 44.7472V45.8122C38.8898 46.1063 39.1282 46.3447 39.4223 46.3447C39.7164 46.3447 39.9548 46.1063 39.9548 45.8122V44.7472C39.9548 44.4531 39.7164 44.2147 39.4223 44.2147Z" fill="#DC7000"/>
<path d="M41.5523 44.2147C41.2582 44.2147 41.0198 44.4531 41.0198 44.7472V45.8122C41.0198 46.1063 41.2582 46.3447 41.5523 46.3447C41.8463 46.3447 42.0847 46.1063 42.0847 45.8122V44.7472C42.0847 44.4531 41.8463 44.2147 41.5523 44.2147Z" fill="#DC7000"/>
<path d="M43.6823 44.2147C43.3882 44.2147 43.1498 44.4531 43.1498 44.7472V45.8122C43.1498 46.1063 43.3882 46.3447 43.6823 46.3447C43.9764 46.3447 44.2148 46.1063 44.2148 45.8122V44.7472C44.2148 44.4531 43.9764 44.2147 43.6823 44.2147Z" fill="#DC7000"/>
<path d="M45.8122 44.2147C45.5181 44.2147 45.2797 44.4531 45.2797 44.7472V45.8122C45.2797 46.1063 45.5181 46.3447 45.8122 46.3447C46.1063 46.3447 46.3447 46.1063 46.3447 45.8122V44.7472C46.3447 44.4531 46.1063 44.2147 45.8122 44.2147Z" fill="#DC7000"/>
</g>
<defs>
<clipPath id="clip0_38_495">
<rect width="31.9492" height="31.9492" fill="white" transform="translate(16.5255 16.5254)"/>
</clipPath>
</defs>
</svg>
